<?xml version="1.0" encoding="UTF-8" standalone="no"?>
<svg
   xmlns:dc="http://purl.org/dc/elements/1.1/"
   xmlns:cc="http://creativecommons.org/ns#"
   xmlns:rdf="http://www.w3.org/1999/02/22-rdf-syntax-ns#"
   xmlns:svg="http://www.w3.org/2000/svg"
   xmlns="http://www.w3.org/2000/svg"
   xmlns:sodipodi="http://sodipodi.sourceforge.net/DTD/sodipodi-0.dtd"
   xmlns:inkscape="http://www.inkscape.org/namespaces/inkscape"
   version="1.1"
   x="0px"
   y="0px"
   width="290"
   height="290"
   viewBox="30.767 241.591 289.99999 289.99999"
   id="world-map"
   inkscape:version="0.91 r13725"
   sodipodi:docname="world-map.svg">
  <metadata
     id="metadata535">
    <rdf:RDF>
      <cc:Work
         rdf:about="">
        <dc:format>image/svg+xml</dc:format>
        <dc:type
           rdf:resource="http://purl.org/dc/dcmitype/StillImage" />
        <dc:title>Simple World Map</dc:title>
      </cc:Work>
    </rdf:RDF>
  </metadata>
  <defs
     id="defs533" />
  <sodipodi:namedview
     pagecolor="#ffffff"
     bordercolor="#666666"
     borderopacity="1"
     objecttolerance="10"
     gridtolerance="10"
     guidetolerance="10"
     inkscape:pageopacity="0"
     inkscape:pageshadow="2"
     inkscape:window-width="1440"
     inkscape:window-height="841"
     id="namedview531"
     showgrid="false"
     inkscape:zoom="1.6792136"
     inkscape:cx="146.13272"
     inkscape:cy="176.38832"
     inkscape:window-x="0"
     inkscape:window-y="0"
     inkscape:window-maximized="1"
     inkscape:current-layer="world-map" />
  <title
     id="title3">Simple World Map</title>
  <desc
     id="desc5">
    Author: Al MacDonald
    Editor: Fritz Lekschas
    License: CC BY-SA 3.0
    ID: ISO 3166-1 or &quot;_[a-zA-Z]&quot; if an ISO code is not available
</desc>
  <path
     inkscape:connector-curvature="0"
     style="fill:#ff0000;fill-opacity:1"
     id="ad"
     d="m 310.26762,250.65241 -0.24323,0.86202 0.98094,0.0474 0.22169,-0.87714 z"
     sodipodi:nodetypes="ccccc" />
  <g
     style="fill:#ff0000;fill-opacity:1"
     id="ar"
     transform="translate(-100,-166.62701)">
    <path
       inkscape:connector-curvature="0"
       style="fill:#ff0000;fill-opacity:1;stroke:none;stroke-opacity:1"
       id="path20"
       d="m 279.05,600.613 1.677,1.571 -6.371,9.467 -2.239,2.479 0.777,10.813 4.918,5.974 -4.132,7.209 -3.129,1.35 -3.579,0 1.003,5.627 -5.593,1.92 1.34,4.729 -3.354,10.701 4.141,3.38 -2.239,5.515 -3.804,5.975 2.014,4.165 -4.918,0.786 -4.028,-4.951 -0.674,-15.432 -6.258,-26.209 1.893,-9.163 -4.028,-11.713 2.68,-15.204 2.463,-2.931 -0.605,-2.222 3.164,-2.888 7.054,0.483 3.942,4.21 4.555,0.078 4.668,2.853 -1.375,3.217 0.329,3.25 6.612,-0.312 3.096,-4.727 0,0 z"
       class="mainland" />
    <path
       inkscape:connector-curvature="0"
       style="fill:#ff0000;fill-opacity:1"
       id="path22"
       d="m 264.745,687.564 0.225,4.951 3.803,-0.337 3.242,-2.144 -5.48,-1.124 -1.79,-1.346 0,0 z" />
  </g>
  <path
     inkscape:connector-curvature="0"
     style="fill:#ff0000;fill-opacity:1"
     d="m 138.631,394.73399 7.114,-3.104 2.351,0.226 1.565,6.534 10.839,3.604 1.79,5.523 4.469,0.562 1.902,4.729 -1.34,4.278 -7.27,0.562 -2.68,6.872 -5.705,-0.112 -1.79,-0.337 -3.293,3.197 -1.625,-0.156 -5.593,-12.957 1.547,-2.316 0.545,-9.163 -1.383,-5.455 -1.443,-2.487 0,0 z"
     id="bo" />
  <path
     inkscape:connector-curvature="0"
     style="fill:#ff0000;fill-opacity:1;stroke:none;stroke-opacity:1"
     d="m 186.631,451.83699 5.402,-10.391 0.198,-8.73 10.079,-6.501 5.645,0 4.435,-7.512 0.804,-14.418 -1.815,-3.855 10.684,-9.751 0.406,-10.761 -14.514,-7.105 -17.53,-5.48 -8.264,-0.812 2.221,-4.669 -0.604,-7.104 -1.808,-0.596 -2.671,5.308 -1.4,1.754 -3.595,-1.59 -12.093,4.261 -4.028,-5.073 0.648,-5.299 -3.804,3.872 -4.201,-2.265 -0.424,0.597 0.009,1.841 3.622,1.945 -5.437,5.73 -3.432,-0.034 -3.475,-3.535 -3.933,0.121 -0.484,4.2 2.256,2.739 -2.663,8.532 -3.112,0.241 -4.953,3.13 -1.21,6.146 4.296,4.599 0.787,-0.89 3.017,-0.812 2.576,4.34 7.374,-3.164 2.861,0.165 1.971,6.976 10.52,3.337 1.815,5.564 4.478,0.537 2.135,5.314 -1.443,4.729 1.884,2.474 -0.276,3.683 5.048,-0.477 4.625,5.844 -0.363,4.105 2.74,2.316 -6.57,9.95 11.566,6.474 0,0 z"
     id="br" />
  <g
     style="fill:#ff0000;fill-opacity:1"
     id="cl"
     transform="translate(-100,-166.62701)">
    <path
       inkscape:connector-curvature="0"
       style="fill:#ff0000;fill-opacity:1"
       id="path107"
       d="m 261.391,683.51 -3.691,8.109 6.371,0.674 0.112,-5.403 -2.792,-3.38 0,0 z" />
    <path
       inkscape:connector-curvature="0"
       style="fill:#ff0000;fill-opacity:1;stroke:none;stroke-opacity:1"
       id="path109"
       d="m 260.137,682.239 -2.775,3.068 -0.337,3.604 -5.368,-3.043 -5.705,-8.221 -1.677,-2.932 2.351,-3.043 -0.225,-3.83 -2.68,-1.124 -2.126,-1.572 0.449,-2.144 2.792,-0.787 0.562,-12.387 -4.356,-2.48 -2.844,-64.477 0.735,-1.278 5.567,12.836 1.781,0.035 0.579,2.049 -2.369,2.868 -2.723,15.448 3.873,11.895 -1.79,9.007 6.31,26.485 0.666,15.49 4.521,5.229 4.789,-0.696 0,0 z" />
    <path
       inkscape:connector-curvature="0"
       style="fill:#ff0000;fill-opacity:1"
       id="path111"
       d="m 241.717,649.833 -1.115,1.686 0.562,2.932 1.115,0.112 0.562,-3.718 -1.124,-1.012 0,0 z" />
  </g>
  <path
     inkscape:connector-curvature="0"
     style="fill:#ff0000;fill-opacity:1;stroke:none;stroke-opacity:1"
     d="m 134.326,331.62399 -1.781,-0.182 -11.773,9.707 -1.245,3.414 -1.608,0.182 0.717,7.546 -4.105,10.07 4.46,3.776 5.714,0.363 3.924,5.757 5.705,0.183 -0.182,4.312 2.135,0 2.316,-7.909 -2.144,-2.694 0.536,-5.031 4.46,-0.363 -0.536,-11.688 -9.993,-3.232 -2.316,-6.293 5.716,-7.918 0,0 z"
     id="co" />
  <path
     inkscape:connector-curvature="0"
     style="fill:#ff0000;fill-opacity:1;stroke:none;stroke-opacity:1"
     d="m 102.905,336.11799 1.202,2.352 0.977,1.297 -1.314,3.898 -2.507,-1.764 -4.097,-3.752 0,-2.48 5.739,0.449 0,0 z"
     id="cr" />
  <path
     inkscape:connector-curvature="0"
     style="fill:#ff0000;fill-opacity:1"
     d="m 105.904,303.21899 0,1.1 4.599,0.086 2.169,-1.263 0.337,0.926 4.512,1.098 4.011,3.622 -0.917,1.262 0.165,1.436 3.345,0.839 3.345,-1.514 1.504,-1.513 -2.169,-1.098 -11.194,-6.569 -3.924,-0.424 -5.783,2.012 0,0 z"
     id="cu" />
  <path
     inkscape:connector-curvature="0"
     style="fill:#ff0000;fill-opacity:1"
     d="m 142.434,314.90599 -4.573,-2.991 -2.887,-1.021 -0.578,5.521 0.578,-0.047 0.761,1.461 0.994,-1.15 2.896,-0.77 2.516,0.536 0.293,-1.539 0,0 z"
     id="do" />
  <g
     style="fill:#ff0000;fill-opacity:1"
     id="ec"
     transform="translate(-100,-166.62701)">
    <path
       inkscape:connector-curvature="0"
       style="fill:#ff0000;fill-opacity:1;stroke:none;stroke-opacity:1"
       id="path144"
       d="m 213.986,529.43 -4.088,2.541 -0.294,3.771 -0.821,1.234 2.576,2.473 -1.115,1.219 0.259,3.113 4.607,1.098 6.976,-8.256 -0.017,-2.878 -3.345,-0.216 -4.738,-4.099 0,0 z"
       class="mainland" />
    <path
       inkscape:connector-curvature="0"
       style="fill:#ff0000;fill-opacity:1"
       id="path146"
       d="m 183.533,531.443 -0.536,2.378 -0.994,1.002 0.683,1.228 1.754,-0.69 0.838,-1.461 -0.536,-1.537 -1.209,-0.92 0,0 z" />
  </g>
  <g
     style="fill:#ff0000;fill-opacity:1"
     id="es"
     transform="translate(-100,-166.62701)">
    <path
       inkscape:connector-curvature="0"
       style="fill:#ff0000;fill-opacity:1"
       id="path158"
       d="m 402.565,416.322 -11.014,0 -2.222,-1.004 -1.071,0.078 -1.297,2.696 0.458,2.775 4.21,0.389 0.536,1.771 -1.833,10.33 0.078,1.851 2.981,1.617 3.439,0.232 6.881,-1.694 3.363,-4.233 0.077,-4.313 5.965,-5.395 0.302,-2.386 -3.99077,-0.47704 0.25868,-1.07913 -0.93123,-0.19856 z"
       class="mainland"
       sodipodi:nodetypes="ccccccccccccccccccccc" />
    <path
       inkscape:connector-curvature="0"
       style="fill:#ff0000;fill-opacity:1"
       id="path160"
       d="m 374.265,458.444 -1.513,0.873 0.7,0.709 0.813,-1.582 0,0 z" />
    <path
       inkscape:connector-curvature="0"
       style="fill:#ff0000;fill-opacity:1"
       id="path162"
       d="m 369.009,458.608 -1.875,0.476 0.935,1.418 1.407,0 -0.467,-1.894 0,0 z" />
    <path
       inkscape:connector-curvature="0"
       style="fill:#ff0000;fill-opacity:1"
       id="path164"
       d="m 364.549,457.191 -1.176,1.184 1.643,1.418 0.935,-2.126 -1.402,-0.476 0,0 z" />
    <path
       inkscape:connector-curvature="0"
       style="fill:#ff0000;fill-opacity:1"
       id="path166"
       d="m 413.578,426.877 -1.375,0.467 0.304,1.235 1.988,0 0.839,-0.925 -1.756,-0.777 0,0 z" />
  </g>
  <path
     inkscape:connector-curvature="0"
     style="fill:#ff0000;fill-opacity:1;stroke:none;stroke-opacity:1"
     d="m 83.456,324.48299 5.126,3.752 5.169,-6.423 -0.881,-1.331 -1.764,-0.062 0,-3.761 -1.322,-0.804 -4.002,1.192 1.53,3.526 -3.856,3.911 0,0 z"
     id="gt" />
  <path
     inkscape:connector-curvature="0"
     style="fill:#ff0000;fill-opacity:1;stroke:none;stroke-opacity:1"
     d="m 94.408,322.11499 7.987,-0.303 2.369,2.817 -1.478,-0.338 -2.844,0.121 -3.717,3.492 -1.59,3.536 -1.046,-0.555 -0.009,-3.872 -2.299,-1.539 2.627,-3.359 0,0 z"
     id="hn" />
  <path
     inkscape:connector-curvature="0"
     style="fill:#ff0000;fill-opacity:1;stroke:none;stroke-opacity:1"
     d="m 33.847,267.35499 4.175,13.146 -1.945,1.089 0.216,2.61 3.674,2.827 0,5.229 4.538,4.356 -1.945,-12.847 -2.593,-8.497 0.648,-5.877 2.161,0.217 0.865,1.962 -0.865,5.005 11.237,21.99 0,7.841 9.077,10.666 9.94,4.573 4.106,-2.396 5.835,4.789 3.458,-3.483 -1.513,-3.925 4.97,-1.521 1.513,0.873 1.513,-1.521 2.377,0 4.322,-7.624 -2.161,-1.962 -8.428,1.962 -1.945,5.662 -4.971,0.874 -5.834,-2.396 -2.593,-8.271 1.962,-10.434 -4.011,-2.498 -1.91,-10.02 -1.599,-0.683 -2.922,2.965 -3.354,-1.789 -1.313,-6.682 -13.286,-1.393 -6.863,-5.16 -6.536,0.343 0,0 z"
     id="mx" />
  <path
     inkscape:connector-curvature="0"
     style="fill:#ff0000;fill-opacity:1;stroke:none;stroke-opacity:1"
     d="m 103.216,324.99299 1.893,0.381 0.061,3.881 -2.204,6.293 -5.938,-0.588 -1.323,-3.034 1.764,-3.682 3.345,-3.112 2.402,-0.139 0,0 z"
     id="ni" />
  <path
     inkscape:connector-curvature="0"
     style="fill:#ff0000;fill-opacity:1;stroke:none;stroke-opacity:1"
     d="m 105.68,340.12099 -1.262,3.941 4.167,1.079 2.584,0.512 0.441,-3.052 2.775,-1.4 2.463,1.271 0.968,1.547 1.175,-0.138 0.925,-2.81 -3.078,-1.271 -2.334,-1.271 -2.333,1.59 -2.775,1.4 -2.835,-1.141 -0.881,-0.257 0,0 z"
     id="pa" />
  <path
     inkscape:connector-curvature="0"
     style="fill:#ff0000;fill-opacity:1;stroke:none;stroke-opacity:1"
     d="m 109.518,374.61899 -1.677,1.695 0.113,2.703 14.643,26.694 15.205,9.802 2.351,-3.941 0.562,-8.669 -1.228,-5.402 -4.141,-6.984 -2.463,0.786 -1.115,1.236 -4.918,-5.636 1.228,-6.647 5.705,-3.717 -0.449,-3.492 -5.809,-0.226 -3.017,-5.064 -1.677,-0.562 0.113,3.044 -7.486,8.895 -5.593,-1.349 -0.347,-3.166 0,0 z"
     id="pe" />
  <path
     inkscape:connector-curvature="0"
     style="fill:#ff0000;fill-opacity:1"
     d="m 149.297,315.44099 -2.282,-0.77 -1.833,1.149 0.917,1.071 3.121,0.458 0.077,-1.908 0,0 z"
     id="pr" />
  <g
     style="fill:#ff0000;fill-opacity:1"
     id="pt"
     transform="translate(-100,-166.62701)">
    <path
       inkscape:connector-curvature="0"
       style="fill:#ff0000;fill-opacity:1"
       id="path371"
       d="m 387.499,421.716 -0.536,7.478 -1.53,1.384 0.156,0.846 1.071,1.772 -0.691,2.16 1.149,0.39 2.68,-0.312 -0.155,-2.16 1.756,-10.02 -0.382,-1.383 -3.518,-0.155 0,0 z"
       class="mainland" />
    <path
       inkscape:connector-curvature="0"
       style="fill:#ff0000;fill-opacity:1"
       id="path373"
       d="m 367.834,443.481 -0.934,1.185 0.934,1.185 1.408,-0.709 -1.408,-1.661 0,0 z" />
    <path
       inkscape:connector-curvature="0"
       style="fill:#ff0000;fill-opacity:1"
       id="path375"
       d="m 337.112,426.713 -1.175,1.184 2.107,1.185 0.234,-1.649 -1.166,-0.72 0,0 z" />
    <path
       inkscape:connector-curvature="0"
       style="fill:#ff0000;fill-opacity:1"
       id="path377"
       d="m 343.448,426.004 -1.408,0.941 1.175,0.941 1.876,-0.476 -1.643,-1.406 0,0 z" />
    <path
       inkscape:connector-curvature="0"
       style="fill:#ff0000;fill-opacity:1"
       id="path379"
       d="m 344.382,429.314 -0.7,1.892 0.935,1.185 1.175,-0.941 -1.41,-2.136 0,0 z" />
    <path
       inkscape:connector-curvature="0"
       style="fill:#ff0000;fill-opacity:1"
       id="path381"
       d="m 350.01,433.092 -0.467,1.184 0.701,0.709 1.875,-1.184 -2.109,-0.709 0,0 z" />
  </g>
  <path
     inkscape:connector-curvature="0"
     style="fill:#ff0000;fill-opacity:1"
     d="m 167.199,417.83099 1.902,2.074 -0.225,4.392 5.48,-0.338 4.141,5.299 -0.337,4.729 -2.681,4.054 -5.479,0.225 -0.225,-2.256 1.564,-3.718 -5.368,-3.38 -4.469,0 -3.354,-3.604 2.438,-6.968 6.613,-0.509 0,0 z"
     id="py" />
  <path
     inkscape:connector-curvature="0"
     style="fill:#ff0000;fill-opacity:1;stroke:none;stroke-opacity:1"
     d="m 89.308,328.58999 4.062,2.022 -0.061,-3.207 -2.083,-1.271 -1.918,2.456 0,0 z"
     id="sv" />
  <path
     inkscape:connector-curvature="0"
     style="fill:#ff0000;fill-opacity:1;stroke:none;stroke-opacity:1"
     d="m 174.633,445.85399 -1.773,1.894 0.735,10.183 5.566,1.615 7.08,-7.097 -11.608,-6.595 0,0 z"
     id="uy" />
  <path
     inkscape:connector-curvature="0"
     style="fill:#ff0000;fill-opacity:1;stroke:none;stroke-opacity:1"
     d="m 131.5,336.93099 0.38,2.239 2.809,0.892 0.64,-4.124 2.965,-3.068 2.965,3.475 6.82,1.859 5.774,-1.211 3.933,4.849 2.965,1.858 -3.25,4.953 1.089,3.752 -1.858,2.299 -1.928,1.616 -4.175,-2.102 -0.959,0.969 0,2.99 3.052,1.452 -2.248,2.43 -2.248,2.43 -2.965,-0.242 -2.982,-3.275 -0.631,-12.326 -10.183,-3.476 -1.85,-5.42 1.885,-2.819 0,0 z"
     id="ve" />
  <g
     id="not-ibero-america">
    <path
       d="m 122.121,296.48499 -1.089,-0.337 -0.086,2.101 1.34,1.349 0.917,-1.349 -1.082,-1.764 0,0 z"
       id="path42"
       style="fill:#bfbfbf;fill-opacity:1"
       inkscape:connector-curvature="0" />
    <path
       d="m 124.29,299.76999 -1.504,0.838 1.417,2.021 0.752,-1.011 -0.665,-1.848 0,0 z"
       id="path44"
       style="fill:#bfbfbf;fill-opacity:1"
       inkscape:connector-curvature="0" />
    <path
       d="m 129.14,301.28299 -1.591,-0.087 0.165,1.012 1.167,1.687 1.002,-1.099 -0.743,-1.513 0,0 z"
       id="path46"
       style="fill:#bfbfbf;fill-opacity:1"
       inkscape:connector-curvature="0" />
    <path
       d="m 128.388,299.26899 -2.593,-1.099 -0.501,-2.609 1.002,-0.425 1.003,2.023 1.002,0.76 0.087,1.35 0,0 z"
       id="path48"
       style="fill:#bfbfbf;fill-opacity:1"
       inkscape:connector-curvature="0" />
    <path
       d="m 125.881,293.96099 -1.34,-0.337 -0.251,-1.686 -1.417,-0.501 0.917,-0.926 1.668,0.588 1.253,0.762 -0.83,2.1 0,0 z"
       id="path50"
       style="fill:#bfbfbf;fill-opacity:1"
       inkscape:connector-curvature="0" />
    <path
       transform="translate(1.9836426e-7,3.4179687e-6)"
       class="mainland"
       d="m 29.767,240.591 0,18.23899 3.267,1.737 0.648,5.645 7.105,0 6.889,5.204 13.562,1.305 1.504,6.941 2.152,1.521 3.017,-3.033 2.369,1.08 2.152,9.976 3.656,2.386 3.017,-5.645 9.258,-6.726 6.025,2.817 5.169,0.433 0.216,-3.25 10.762,0.217 2.152,2.386 0.432,5.42 -1.288,3.034 1.504,5.203 3.233,0 3.232,-4.987 -1.288,-2.386 -1.288,-5.204 1.936,-5.86 8.826,-7.59 6.673,-1.953 -0.864,-6.293 9.258,-9.983 9.258,-1.521 -1.504,-5.193 6.94029,-3.91999"
       id="path57"
       style="fill:#bfbfbf;fill-opacity:1;stroke:none;stroke-opacity:1"
       inkscape:connector-curvature="0"
       sodipodi:nodetypes="ccccccccccccccccccccccccccccccccccc" />
    <path
       transform="translate(1.9836426e-7,3.4179687e-6)"
       sodipodi:nodetypes="ccccccccccccccccccccccccccccccccccccccccccccccccccccccc"
       inkscape:connector-curvature="0"
       style="fill:#bfbfbf;fill-opacity:1;stroke:none;stroke-opacity:1"
       d="m 321.767,268.00629 -15.345,2.70275 -3.198,2.429 -0.719,0.138 0,0 -9.982,0 -1.954,4.339 -4.504,2.17 -3.719,10.062 -7.243,4.341 -10.174,16.761 0.069,0.69 0,0 1.885,2.463 -0.389,10.65 -0.387,1.168 -0.776,1.384 -0.242,1.383 1.253,0.899 0.377,0.793 0,0 -0.111,0.959 0.024,0.665 0,0 1.072,2.603 0.492,1.123 0,0 1.211,2.395 0.363,0.553 0,0 2.629,4.046 0.405,0.44 0,0 4.884,4.72 0.51,0.517 0,0 9.491,6.345 0.795,0.19 0,0 3.697,-2.617 4.6,-0.806 4.693,1.013 1.109,0.259 1.4,-0.052 3.819,-2.171 0.693,-0.378 0,0 2.316,-1.356 0.701,-0.166 0,0 1.833,0 0.639,-0.103 0,0 3.389,0.164 4.394,4.79387"
       id="path9994" />
    <path
       transform="translate(1.9836426e-7,3.4179687e-6)"
       class="mainland"
       d="m 161.81849,241.49399 0.864,2.603 3.017,0 2.368,-3.50599 -5.02221,0 z"
       id="path57-7"
       style="fill:#bfbfbf;fill-opacity:1;stroke:none;stroke-opacity:1"
       inkscape:connector-curvature="0"
       sodipodi:nodetypes="cccccc" />
    <path
       d="m 158.823,329.95499 -1.063,0.77 0.839,1.539 1.374,-0.77 -1.15,-1.539 0,0 z"
       id="path510"
       style="fill:#bfbfbf;fill-opacity:1"
       inkscape:connector-curvature="0" />
    <path
       d="m 157.526,332.94599 -0.994,0.994 0.38,0.612 1.219,0 0.38,-1.003 -0.985,-0.603 0,0 z"
       id="path512"
       style="fill:#bfbfbf;fill-opacity:1"
       inkscape:connector-curvature="0" />
    <path
       transform="translate(1.9836426e-7,3.4179687e-6)"
       inkscape:connector-curvature="0"
       style="fill:#bfbfbf;fill-opacity:1"
       d="m 158.97,335.94499 -0.917,0.847 -0.994,0.155 0,1.228 1.833,1.687 0.76,-1.229 0.458,-1.383 -0.156,-1.149 -0.984,-0.156 0,0 z"
       id="path-tt" />
    <path
       transform="translate(1.9836426e-7,3.4179687e-6)"
       inkscape:connector-curvature="0"
       style="fill:#bfbfbf;fill-opacity:1"
       d="m 158.746,326.65299 -0.614,1.306 0.994,1.071 1.296,-0.691 -1.676,-1.686 0,0 z"
       id="path-lc" />
    <path
       transform="translate(1.9836426e-7,3.4179687e-6)"
       inkscape:connector-curvature="0"
       style="fill:#bfbfbf;fill-opacity:1"
       d="m 121.533,314.17099 -3.008,0.761 0,0.84 1.755,1.011 1.841,0 1.167,-1.349 -1.755,-1.263 0,0 z"
       id="path-jm" />
    <path
       transform="translate(1.9836426e-7,3.4179687e-6)"
       inkscape:connector-curvature="0"
       style="fill:#bfbfbf;fill-opacity:1"
       d="m 131.845,310.53199 2.974,0.311 -0.354,3.648 -0.294,1.919 -3.466,-0.19 -0.614,0.926 -1.063,-0.077 -0.38,-1.997 3.656,-0.304 -0.225,-2.073 -1.677,-0.691 1.443,-1.472 0,0 z"
       id="path-ht" />
    <path
       transform="translate(1.9836426e-7,3.4179687e-6)"
       sodipodi:nodetypes="cccccccccccccccccccccc"
       inkscape:connector-curvature="0"
       style="fill:#bfbfbf;fill-opacity:1;stroke:none;stroke-opacity:1"
       d="m 168.141,360.84599 -5.67,2.16 -3.397,-4.59 0.726,-5.515 -1.452,-4.105 3.051,-4.769 0,0 6.241,5.652 0.744,0.409 0,0 1.763,1.616 2.731,-1.694 2.49,0.078 0.795,0.57 0,0 5.058,3.154 -2.646,5.255 -0.959,1.21 -2.809,-1.615 -0.969,-0.006 -4.97,2.022 z"
       id="path-8887" />
    <path
       sodipodi:nodetypes="ccccccccccccc"
       class="mainland"
       d="m 305.636,240.591 -0.077,4.32399 -2.368,4.157 6.58618,1.13918 2.04978,0.0404 -0.27468,1.22617 1.96872,0.21221 1.606,-1.85 3.286,0.078 0.916,0.848 2.438,-0.16302 0,-10.01197 z"
       id="path176"
       style="fill:#bfbfbf;fill-opacity:1"
       inkscape:connector-curvature="0" />
    <path
       d="m 158.823,323.19499 -0.917,0.847 0.683,1.383 1.296,-0.38 -1.062,-1.85 0,0 z"
       id="path184"
       style="fill:#bfbfbf;fill-opacity:1"
       inkscape:connector-curvature="0" />
    <path
       d="m 154.095,317.43799 -1.296,0.535 0.458,1.149 1.521,-0.994 -0.303,-0.311 -0.38,-0.379 0,0 z"
       id="path188"
       style="fill:#bfbfbf;fill-opacity:1"
       inkscape:connector-curvature="0" />
    <path
       d="m 181.194,511.76599 -2.273,-0.25 -2.265,1.521 1.642,1.781 2.896,-3.052 0,0 z"
       id="path171"
       style="fill:#bfbfbf;fill-opacity:1"
       inkscape:connector-curvature="0" />
    <path
       d="m 183.459,510.62499 -0.752,2.411 -2.144,1.901 0.13,0.631 3.655,-1.4 1.513,-1.901 -2.402,-1.642 0,0 z"
       id="path173"
       style="fill:#bfbfbf;fill-opacity:1"
       inkscape:connector-curvature="0" />
    <path
       transform="translate(1.9836426e-7,3.4179687e-6)"
       inkscape:connector-curvature="0"
       style="fill:#bfbfbf;fill-opacity:1"
       d="m 156.23,318.74399 -0.761,1.616 0.917,1.228 1.141,-0.994 -1.297,-1.85 0,0 z"
       id="path-dm" />
    <path
       d="m 250.01,323.63699 -1.642,0.942 1.175,0.941 1.409,-0.708 -0.942,-1.175 0,0 z"
       id="path123"
       style="fill:#bfbfbf;fill-opacity:1"
       inkscape:connector-curvature="0" />
    <path
       d="m 254.046,325.53799 -1.071,0.951 0.762,1.409 1.832,-0.821 -1.523,-1.539 0,0 z"
       id="path125"
       style="fill:#bfbfbf;fill-opacity:1"
       inkscape:connector-curvature="0" />
    <path
       d="m 251.704,328.20899 -1.375,0.821 1.479,1.979 1.168,-0.612 -1.272,-2.188 0,0 z"
       id="path127"
       style="fill:#bfbfbf;fill-opacity:1"
       inkscape:connector-curvature="0" />
  </g>
</svg>
